<svg xmlns="http://www.w3.org/2000/svg" width="15" height="15" viewBox="0 0 15 15"><g><g><g><path fill="#707070" d="M13.314 14.168c-.61.609-1.855.583-3.418-.07-1.654-.692-3.482-1.99-5.147-3.656-1.666-1.665-2.964-3.494-3.656-5.148-.653-1.562-.679-2.808-.07-3.417l.815-.815L4.665 5.97l-.19.19A1.02 1.02 0 0 0 4.4 7.521c.474.589.994 1.167 1.548 1.72a21.57 21.57 0 0 0 1.72 1.548 1.02 1.02 0 0 0 1.362-.075l.173-.172 4.925 2.81-.814.815zM2.686.588c.21.027.39.148.495.33L5.31 4.62a.674.674 0 0 1-.107.813l-.183.183L2.198.713a.665.665 0 0 1 .488-.126zm7.885 9.291l3.7 2.13a.668.668 0 0 1 .332.496.667.667 0 0 1-.125.488L9.56 10.186l.2-.2a.675.675 0 0 1 .811-.107zm4.514 2.562a1.15 1.15 0 0 0-.57-.852l-3.701-2.131a1.161 1.161 0 0 0-1.398.185l-.73.729a.534.534 0 0 1-.713.04 21.069 21.069 0 0 1-1.682-1.513A21.075 21.075 0 0 1 4.78 7.218a.534.534 0 0 1 .04-.714l.729-.729c.37-.37.446-.945.185-1.398l-2.13-3.7a1.15 1.15 0 0 0-.854-.571 1.15 1.15 0 0 0-.971.33L.679 1.532c-.766.767-.778 2.17-.034 3.949.715 1.711 2.05 3.595 3.76 5.304 1.71 1.71 3.593 3.044 5.304 3.76.876.366 1.66.55 2.323.55.683 0 1.236-.195 1.625-.585l1.099-1.098c.257-.257.377-.611.33-.972z"/></g></g></g></svg>