<svg xmlns="http://www.w3.org/2000/svg" width="11" height="15" viewBox="0 0 11 15"><g><g><g><g><g><path fill="#ffffff" d="M9.049 7.524L5.34 13.716 1.534 7.583a4.389 4.389 0 0 1-.661-2.31 4.41 4.41 0 0 1 4.4-4.4 4.407 4.407 0 0 1 4.398 4.4 4.39 4.39 0 0 1-.622 2.251zM5.273 0A5.28 5.28 0 0 0 0 5.273c0 .983.272 1.942.787 2.773l4.186 6.746a.44.44 0 0 0 .374.208h.003a.44.44 0 0 0 .374-.214l4.08-6.81a5.267 5.267 0 0 0 .743-2.703A5.28 5.28 0 0 0 5.273 0z"/></g></g></g><g><g><g><path fill="#ffffff" d="M5.273 7.037A1.765 1.765 0 0 1 3.51 5.273c0-.969.794-1.763 1.763-1.763.97 0 1.761.794 1.761 1.763 0 .958-.77 1.764-1.76 1.764zm0-4.4a2.64 2.64 0 0 0-2.636 2.636A2.633 2.633 0 0 0 5.273 7.91 2.632 2.632 0 0 0 7.91 5.273a2.64 2.64 0 0 0-2.637-2.636z"/></g></g></g></g></g></svg>
