<svg xmlns="http://www.w3.org/2000/svg" width="199" height="39" viewBox="0 0 199 39"><g><g><g><path fill="#fff" d="M57.695 38.887c0 .129 0 0 0 0zm-2.304-8.337v2.095h-2.048V30.55zm0-4.608v2.095h-2.048v-2.095zm0-4.608v2.094h-2.048v-2.094zm0-4.609v2.095h-2.048v-2.095zm0-4.655v2.095h-2.048V12.07zm0-4.608v2.095h-2.048V7.462zm-5.8 8.886v2.089l-8.165-1.987v-2.192zm.416 4.635v2.11l-8.58-1.57v-2.191zm-.356 4.558v2.073l-8.22-1.11v-2.191zm0 4.47v2.095l-8.22-.897v-2.192zm0 4.608v2.13l-8.22-.397v-2.195zm-12.07-1.131v2.107l-1.614.36v-2.141zm0-4.68v2.105l-1.614.334v-2.1zm-.047-4.677v2.119l-1.607.324v-2.128zm-.047-4.666v2.088l-1.56.353V19.78zm-.03-4.7v2.073l-1.532.346-.056-2.073zm-20.051-5.82v1.783l-1.348.29V9.24zm0 4.004v1.782l-1.348.29v-1.778zm.046 3.957v1.782l-1.348.29V17.2zm0 3.956v1.782l-1.348.291v-1.78zm0 4.05v1.782l-1.348.29v-1.778zm-.093 7.913v1.782l-1.348.29V33.12zm0-3.956v1.782l-1.348.29v-1.779zm8.417-19.85v26.587l-1.479.086V9.13zm-2.582.11v26.563l-1.458.148V9.294zm-2.566.165V35.84l-1.409.08-.066-26.547zM57.695-.068l-.06-.01-6.917 1.307V14.2l-10.975-3.027-6.032 2.192v7.203l-1.824.654V9.951l-4.399-.821V6.138l-9.658-.244-3.146-4.333v34.365L-1.375 38.86l39.818.261 40.295-.261-15.23-3.477V.932z"/></g><g><g><path fill="#fff" d="M195.631 7.239c-.93.614-2.048.95-3.37.95s-2.439-.336-3.37-.95V4.576c1.006.615 2.16.857 3.37.857 1.192 0 2.365-.242 3.37-.857zm-1.638 14.746v-3.91c0-.689.019-1.415.112-2.197l-4.413 6.107h-3.63V8.952h4.3v3.891c0 .708-.018 1.452-.111 2.235l4.412-6.126h3.631v13.033zm-13.778-6.516c0-1.788-.968-2.924-2.644-2.924-1.676 0-2.644 1.136-2.644 2.924 0 1.787.968 2.923 2.644 2.923 1.676 0 2.644-1.136 2.644-2.923zm-9.701 0c0-3.743 2.365-6.815 7.057-6.815s7.056 3.072 7.056 6.815c0 3.742-2.364 6.814-7.056 6.814s-7.057-3.072-7.057-6.814zm-5.046-1.695c0-.912-.633-1.285-1.62-1.285h-1.359v2.551h1.36c.986 0 1.62-.372 1.62-1.266zm-7.28-4.822h5.698c3.314 0 5.846 1.154 5.846 4.822 0 3.65-2.532 4.804-5.846 4.804h-1.397v3.407h-4.3zm-12.493 0h11.283v3.76h-3.5v9.273h-4.283v-9.272h-3.5zm-11.861 6.647c-.019-4.953 3.556-6.945 7.131-6.945 1.34 0 2.681.26 3.836.782v3.835c-.726-.502-1.918-.893-3.072-.893-1.788 0-3.482.893-3.482 3.22 0 2.049 1.676 2.905 3.388 2.905 1.341 0 2.589-.335 3.259-.93V21.5c-1.155.522-2.44.782-3.817.782-3.687 0-7.243-1.936-7.243-6.684zm-5.493-2.514c0-.54-.353-.968-1.08-.968h-1.62v1.918l1.62.018c.727 0 1.08-.446 1.08-.968zm.373 4.674c0-.69-.429-1.062-1.248-1.062h-1.824v2.123h1.824c.82 0 1.248-.372 1.248-1.061zm-7.374-8.807h6.517c2.942 0 4.618 1.024 4.618 3.295 0 1.341-.522 2.29-1.862 2.812 1.527.465 2.383 1.527 2.383 3.202 0 2.96-2.57 3.724-5.306 3.724h-6.35zm-8.453 5.418l-.912 2.774h2.55l-.912-2.774a10.31 10.31 0 0 1-.372-1.676c-.093.67-.223 1.192-.354 1.676zm-2.476 7.615h-4.357l4.878-13.033h4.618l4.86 13.033h-4.357l-.559-1.731h-4.506zM96.204 8.952h11.284v3.76h-3.5v9.273h-4.283v-9.272h-3.5zm-11.86 6.647c-.019-4.953 3.556-6.945 7.131-6.945 1.34 0 2.681.26 3.836.782v3.835c-.726-.502-1.918-.893-3.073-.893-1.787 0-3.481.893-3.481 3.22 0 2.049 1.675 2.905 3.388 2.905 1.341 0 2.588-.335 3.259-.93V21.5c-1.155.522-2.44.782-3.817.782-3.687 0-7.243-1.936-7.243-6.684z"/></g><g><path fill="#fff" d="M194.813 28.797c0 .381.254.645.762.645h.802v-1.29h-.802c-.508 0-.762.264-.762.645zm-.225 4.36h-2.541l1.74-2.415c-.763-.371-1.252-1.006-1.252-1.994 0-1.818 1.418-2.434 2.913-2.434h3.177v6.843h-2.248v-2.024h-.381zm-3.05 0h-2.258v-2.053c0-.362.01-.743.059-1.153l-2.317 3.206h-1.906v-6.843h2.258v2.043c0 .372-.01.763-.059 1.173l2.317-3.216h1.906zm-9.706-6.843h2.248v6.843h-2.248v-2.434h-1.858v2.434h-2.258v-6.843h2.258v2.434h1.858zm-8.554 2.845l-.479 1.456h1.34l-.48-1.456a5.412 5.412 0 0 1-.195-.88 6.819 6.819 0 0 1-.186.88zm-1.3 3.998h-2.287l2.56-6.843h2.425l2.551 6.843h-2.287l-.293-.91h-2.366zm-6.94 0h-2.248v-6.843h6.412v6.843h-2.248v-4.868h-1.916zm-5.288-6.843h2.003v6.843h-2.199v-3.128l-1.124 1.74h-1.183l-1.124-1.75v3.138h-2.2v-6.843h2.004l1.907 2.991zm-8.896 3.422c0-.939-.508-1.535-1.388-1.535-.88 0-1.388.596-1.388 1.535 0 .938.508 1.534 1.388 1.534.88 0 1.388-.596 1.388-1.534zm-5.093 0c0-1.965 1.242-3.578 3.705-3.578s3.705 1.613 3.705 3.578c0 1.964-1.242 3.577-3.705 3.577s-3.705-1.613-3.705-3.577zm-4.193 3.42h-2.258v-6.842h2.258v2.424h.567l1.368-2.424h2.483l-2.082 3.392 2.121 3.45h-2.483l-1.456-2.443h-.518zm-9.031-4.463c0 .39.26.66.78.66h.821v-1.32h-.82c-.521 0-.781.27-.781.66zm-.23 4.464h-2.562l-.014-.037 1.755-2.435c-.78-.38-1.281-1.03-1.281-2.042 0-1.861 1.451-2.492 2.982-2.492h3.253v7.006h-2.302v-2.072h-.39zm-6.606-4.093l-.49 1.49h1.371l-.49-1.49c-.08-.26-.15-.54-.2-.901-.05.36-.12.64-.19.9zm-1.33 4.093h-2.343l2.622-7.006h2.482l2.599 6.97-.027.036h-2.301l-.3-.93h-2.422zm-5.145-7.006h2.302v7.006h-2.302v-2.492h-1.901v2.492h-2.312V26.15h2.312v2.492h1.901zm-7.576 0h2.302v7.006h-2.302v-2.492h-1.901v2.492h-2.312V26.15h2.312v2.492h1.901zm-7.356 3.503c0-.96-.52-1.571-1.42-1.571-.901 0-1.422.61-1.422 1.571 0 .96.52 1.571 1.421 1.571s1.421-.61 1.421-1.57zm-5.214 0c0-2.012 1.271-3.663 3.793-3.663 2.522 0 3.793 1.651 3.793 3.663 0 2.012-1.27 3.663-3.793 3.663-2.522 0-3.793-1.651-3.793-3.663zm-4.293 3.503h-2.312V26.15h2.312v2.482h.58l1.402-2.482h2.542l-2.132 3.473 2.172 3.533h-2.542l-1.492-2.502h-.53zm-5.454-3.503c0-.96-.52-1.571-1.421-1.571s-1.422.61-1.422 1.571c0 .96.52 1.571 1.422 1.571.9 0 1.42-.61 1.42-1.57zm-5.214 0c0-2.012 1.27-3.663 3.793-3.663 2.522 0 3.793 1.651 3.793 3.663 0 2.012-1.271 3.663-3.793 3.663-2.522 0-3.793-1.651-3.793-3.663z"/></g></g></g></g></svg>