<svg xmlns="http://www.w3.org/2000/svg" width="199" height="39" viewBox="0 0 199 39"><g><g><g><path fill="#0d194c" d="M57.695 38.887s0 .129 0 0zm-2.304-8.337v2.095h-2.048V30.55zm0-4.608v2.095h-2.048v-2.095zm0-4.608v2.094h-2.048v-2.094zm0-4.609v2.095h-2.048v-2.095zm0-4.655v2.095h-2.048V12.07zm0-4.608v2.095h-2.048V7.462zm-5.8 8.886v2.089l-8.165-1.987v-2.192zm.416 4.635v2.11l-8.58-1.57v-2.191zm-.356 4.558v2.073l-8.22-1.11v-2.191zm0 4.47v2.095l-8.22-.897v-2.192zm0 4.608v2.13l-8.22-.397v-2.195zm-12.07-1.131v2.107l-1.614.36v-2.141zm0-4.68v2.105l-1.614.334v-2.1zm-.047-4.677v2.119l-1.607.324v-2.128zm-.047-4.666v2.088l-1.56.353V19.78zm-.03-4.7v2.073l-1.532.346-.056-2.073zm-20.051-5.82v1.783l-1.348.29V9.24zm0 4.004v1.782l-1.348.29v-1.778zm.046 3.957v1.782l-1.348.29V17.2zm0 3.956v1.782l-1.348.291v-1.78zm0 4.05v1.782l-1.348.29v-1.778zm-.093 7.913v1.782l-1.348.29V33.12zm0-3.956v1.782l-1.348.29v-1.779zm8.417-19.85v26.587l-1.479.086V9.13zm-2.582.11v26.563l-1.458.148V9.294zm-2.566.165V35.84l-1.409.08-.066-26.547zM57.695-.068l-.06-.01-6.917 1.307V14.2l-10.975-3.027-6.032 2.192v7.203l-1.824.654V9.951l-4.399-.821V6.138l-9.658-.244-3.146-4.333v34.365L-1.375 38.86l39.818.261 40.295-.261-15.23-3.477V.932z"/></g><g><g><path fill="#0d194c" d="M195.631 7.239c-.93.614-2.048.95-3.37.95s-2.439-.336-3.37-.95V4.576c1.006.615 2.16.857 3.37.857 1.192 0 2.365-.242 3.37-.857zm-1.638 14.746v-3.91c0-.689.019-1.415.112-2.197l-4.413 6.107h-3.63V8.952h4.3v3.891c0 .708-.018 1.452-.111 2.235l4.412-6.126h3.631v13.033zm-13.778-6.516c0-1.788-.968-2.924-2.644-2.924-1.676 0-2.644 1.136-2.644 2.924 0 1.787.968 2.923 2.644 2.923 1.676 0 2.644-1.136 2.644-2.923zm-9.701 0c0-3.743 2.365-6.815 7.057-6.815s7.056 3.072 7.056 6.815c0 3.742-2.364 6.814-7.056 6.814s-7.057-3.072-7.057-6.814zm-5.046-1.695c0-.912-.633-1.285-1.62-1.285h-1.359v2.551h1.36c.986 0 1.62-.372 1.62-1.266zm-7.28-4.822h5.698c3.314 0 5.846 1.154 5.846 4.822 0 3.65-2.532 4.804-5.846 4.804h-1.397v3.407h-4.3zm-12.493 0h11.283v3.76h-3.5v9.273h-4.283v-9.272h-3.5zm-11.861 6.647c-.019-4.953 3.556-6.945 7.131-6.945 1.34 0 2.681.26 3.836.782v3.835c-.726-.502-1.918-.893-3.072-.893-1.788 0-3.482.893-3.482 3.22 0 2.049 1.676 2.905 3.388 2.905 1.341 0 2.589-.335 3.259-.93V21.5c-1.155.522-2.44.782-3.817.782-3.687 0-7.243-1.936-7.243-6.684zm-5.493-2.514c0-.54-.353-.968-1.08-.968h-1.62v1.918l1.62.018c.727 0 1.08-.446 1.08-.968zm.373 4.674c0-.69-.429-1.062-1.248-1.062h-1.824v2.123h1.824c.82 0 1.248-.372 1.248-1.061zm-7.374-8.807h6.517c2.942 0 4.618 1.024 4.618 3.295 0 1.341-.522 2.29-1.862 2.812 1.527.465 2.383 1.527 2.383 3.202 0 2.96-2.57 3.724-5.306 3.724h-6.35zm-8.453 5.418l-.912 2.774h2.55l-.912-2.774a10.31 10.31 0 0 1-.372-1.676c-.093.67-.223 1.192-.354 1.676zm-2.476 7.615h-4.357l4.878-13.033h4.618l4.86 13.033h-4.357l-.559-1.731h-4.506zM96.204 8.952h11.284v3.76h-3.5v9.273h-4.283v-9.272h-3.5zm-11.86 6.647c-.019-4.953 3.556-6.945 7.131-6.945 1.34 0 2.681.26 3.836.782v3.835c-.726-.502-1.918-.893-3.073-.893-1.787 0-3.481.893-3.481 3.22 0 2.049 1.675 2.905 3.388 2.905 1.341 0 2.588-.335 3.259-.93V21.5c-1.155.522-2.44.782-3.817.782-3.687 0-7.243-1.936-7.243-6.684z"/></g><g><path fill="#0d194c" d="M195.575 28.152h.802v1.29h-.802c-.508 0-.762-.264-.762-.645s.254-.645.762-.645zm.42 2.981h.382v2.024h2.248v-6.843h-3.177c-1.495 0-2.913.616-2.913 2.434 0 .988.49 1.623 1.252 1.994l-1.74 2.415h2.541zm-4.457-4.819h-1.906l-2.317 3.216c.05-.41.06-.801.06-1.173v-2.043h-2.259v6.843h1.906l2.317-3.206c-.049.41-.059.791-.059 1.153v2.053h2.258zm-9.706 2.434h-1.858v-2.434h-2.258v6.843h2.258v-2.434h1.858v2.434h2.248v-6.843h-2.248zm-8.554.41c.069-.253.137-.527.186-.879.049.352.117.626.196.88l.479 1.456h-1.34l.48-1.456zm-.997 3.09h2.366l.293.909h2.287l-2.55-6.843h-2.425l-2.561 6.843h2.287zm-7.243-3.96h1.916v4.869h2.248v-6.843h-6.412v6.843h2.248zm-7.204 1.017l-1.907-2.99h-2.003v6.842h2.199v-3.138l1.124 1.75h1.183l1.124-1.74v3.128h2.2v-6.843h-2.004zm-8.368 1.965c-.88 0-1.388-.596-1.388-1.534 0-.939.508-1.535 1.388-1.535.88 0 1.388.596 1.388 1.535 0 .938-.508 1.534-1.388 1.534zm0 2.043c2.463 0 3.705-1.613 3.705-3.577 0-1.965-1.242-3.578-3.705-3.578s-3.705 1.613-3.705 3.578c0 1.964 1.242 3.577 3.705 3.577zm-7.898-2.6h.518l1.456 2.444h2.483l-2.121-3.45 2.082-3.393h-2.483l-1.368 2.424h-.567v-2.424h-2.258v6.843h2.258zm-8.25-2.68h.82v1.32h-.82c-.521 0-.781-.27-.781-.66s.26-.66.78-.66zm.43 3.052h.39v2.072h2.302V26.15h-3.253c-1.531 0-2.982.63-2.982 2.492 0 1.011.5 1.662 1.28 2.042l-1.754 2.435.014.037h2.562zm-8.047-2.021c.07-.26.14-.54.19-.901.05.36.12.64.2.9l.491 1.492h-1.371l.49-1.491zm-1.02 3.162h2.421l.3.93h2.302l.027-.036-2.599-6.969h-2.482l-2.622 7.006h2.342zm-5.455-3.583h-1.901v-2.492h-2.312v7.006h2.312v-2.492h1.901v2.492h2.302V26.15h-2.302zm-7.576 0h-1.901v-2.492h-2.312v7.006h2.312v-2.492h1.901v2.492h2.302V26.15h-2.302zm-8.777 2.582c-.9 0-1.42-.61-1.42-1.57 0-.962.52-1.572 1.42-1.572.901 0 1.421.61 1.421 1.571 0 .96-.52 1.571-1.42 1.571zm0 2.092c2.522 0 3.793-1.651 3.793-3.663 0-2.012-1.27-3.663-3.793-3.663-2.522 0-3.793 1.651-3.793 3.663 0 2.012 1.271 3.663 3.793 3.663zm-8.086-2.662h.53l1.492 2.502h2.542l-2.172-3.533 2.132-3.473h-2.542l-1.402 2.482h-.58v-2.482h-2.312v7.006h2.312zm-6.875.57c-.901 0-1.422-.61-1.422-1.57 0-.962.52-1.572 1.422-1.572.9 0 1.42.61 1.42 1.571 0 .96-.52 1.571-1.42 1.571zm0 2.092c2.522 0 3.793-1.651 3.793-3.663 0-2.012-1.271-3.663-3.793-3.663-2.522 0-3.793 1.651-3.793 3.663 0 2.012 1.27 3.663 3.793 3.663z"/></g></g></g></g></svg>