<svg xmlns="http://www.w3.org/2000/svg" width="15" height="15" viewBox="0 0 15 15"><g><g><g><g><g><path fill="#707070" d="M7.5 14.414A6.922 6.922 0 0 1 .586 7.5 6.922 6.922 0 0 1 7.5.586 6.922 6.922 0 0 1 14.414 7.5 6.922 6.922 0 0 1 7.5 14.414zm5.303-12.217A7.45 7.45 0 0 0 7.5 0a7.45 7.45 0 0 0-5.303 2.197A7.451 7.451 0 0 0 0 7.5c0 2.003.78 3.887 2.197 5.303A7.45 7.45 0 0 0 7.5 15a7.45 7.45 0 0 0 5.303-2.197A7.451 7.451 0 0 0 15 7.5c0-2.003-.78-3.887-2.197-5.303z"/></g></g></g><g><g><g><path fill="#707070" d="M13.714 6.297a6.322 6.322 0 0 0-3.701-4.607.293.293 0 0 0-.233.538c1.745.756 3 2.318 3.359 4.18a.293.293 0 0 0 .575-.11z"/></g></g></g><g><g><g><path fill="#707070" d="M8.86 1.319l-.007-.002a.293.293 0 1 0-.124.573h.004a.294.294 0 0 0 .35-.222.293.293 0 0 0-.223-.35z"/></g></g></g><g><g><g><path fill="#707070" d="M5.286 12.8a5.727 5.727 0 0 1-3.425-4.208.293.293 0 1 0-.575.11 6.328 6.328 0 0 0 3.774 4.639.292.292 0 0 0 .384-.158.293.293 0 0 0-.158-.383z"/></g></g></g><g><g><g><path fill="#707070" d="M6.271 13.11l-.018-.003a.293.293 0 0 0-.127.572l.02.004a.294.294 0 0 0 .35-.224.293.293 0 0 0-.225-.348z"/></g></g></g><g><g><g><path fill="#707070" d="M13.46 8.505a.293.293 0 0 0-.35.224 5.727 5.727 0 0 1-4.518 4.41.293.293 0 1 0 .11.575 6.3 6.3 0 0 0 3.22-1.687 6.303 6.303 0 0 0 1.761-3.174.293.293 0 0 0-.224-.348z"/></g></g></g><g><g><g><path fill="#707070" d="M6.64 1.518a.293.293 0 0 0-.343-.232 6.299 6.299 0 0 0-3.219 1.687 6.302 6.302 0 0 0-1.761 3.174.293.293 0 0 0 .572.124 5.727 5.727 0 0 1 4.52-4.41.293.293 0 0 0 .231-.343z"/></g></g></g><g><g><g><path fill="#707070" d="M7.5 7.91a.41.41 0 1 1 0-.821.41.41 0 0 1 0 .821zm0-1.406a.997.997 0 0 0 0 1.992.997.997 0 0 0 0-1.992z"/></g></g></g><g><g><g><path fill="#707070" d="M7.504 1.172a.293.293 0 0 0-.293.293v.656a.293.293 0 0 0 .586 0v-.656a.293.293 0 0 0-.293-.293z"/></g></g></g><g><g><g><path fill="#707070" d="M7.496 12.377a.293.293 0 0 0-.293.293v.865a.293.293 0 0 0 .586 0v-.865a.293.293 0 0 0-.293-.293z"/></g></g></g><g><g><g><path fill="#707070" d="M13.535 7.211h-.79a.293.293 0 0 0 0 .586h.79a.293.293 0 0 0 0-.586z"/></g></g></g><g><g><g><path fill="#707070" d="M2.314 7.203h-.85a.293.293 0 0 0 0 .586h.85a.293.293 0 0 0 0-.586z"/></g></g></g><g><g><g><path fill="#707070" d="M6.797 7.207H5.459a.293.293 0 0 0 0 .586h1.338a.293.293 0 0 0 0-.586z"/></g></g></g><g><g><g><path fill="#707070" d="M7.5 3.76a.293.293 0 0 0-.293.293v2.744a.293.293 0 0 0 .586 0V4.053A.293.293 0 0 0 7.5 3.76z"/></g></g></g></g></g></svg>